<svg xmlns="http://www.w3.org/2000/svg" viewBox="0 0 373.333 373.333"><path d="M306.667 0h-240C59.306.006 53.34 5.972 53.334 13.333V328c.006 7.361 5.972 13.327 13.333 13.333h8v21.333c0 5.891 4.776 10.667 10.667 10.667H96c5.891 0 10.667-4.776 10.667-10.667v-21.333h160v21.333c0 5.891 4.776 10.667 10.667 10.667H288c5.891 0 10.667-4.776 10.667-10.667v-21.333h8c7.361-.006 13.327-5.972 13.333-13.333V13.333C319.994 5.972 314.028.006 306.667 0zm-29.334 160c0 5.891-4.776 10.667-10.667 10.667S256 165.891 256 160V96c0-5.891 4.776-10.667 10.667-10.667S277.333 90.109 277.333 96v64z" fill="#484240"/></svg>