<svg xmlns="http://www.w3.org/2000/svg" viewBox="0 0 512 512"><path d="M218.513 342.477C213.988 335.635 211 331.115 211 320.5h-30c0 19.635 6.924 30.108 12.487 38.523C198.012 365.865 201 370.385 201 381s-2.988 15.135-7.513 21.977C187.924 411.392 181 421.865 181 441.5h30c0-10.615 2.988-15.135 7.513-21.977C224.076 411.108 231 400.635 231 381s-6.924-30.108-12.487-38.523zM158.513 342.477C153.988 335.635 151 331.115 151 320.5h-30c0 19.635 6.924 30.108 12.487 38.523C138.012 365.865 141 370.385 141 381s-2.988 15.135-7.513 21.977C127.924 411.392 121 421.865 121 441.5h30c0-10.615 2.988-15.135 7.513-21.977C164.076 411.108 171 400.635 171 381s-6.924-30.108-12.487-38.523zM278.513 342.477C273.988 335.635 271 331.115 271 320.5h-30c0 19.635 6.924 30.108 12.487 38.523C258.012 365.865 261 370.385 261 381s-2.988 15.135-7.513 21.977C247.924 411.392 241 421.865 241 441.5h30c0-10.615 2.988-15.135 7.513-21.977C284.076 411.108 291 400.635 291 381s-6.924-30.108-12.487-38.523zM429.5 363.693l-15-25.98-29.922 17.275V320.5h-30v34.488l-29.921-17.275-15 25.98 29.922 17.276-29.868 17.244 15 25.98 29.867-17.244V441.5h30v-34.551l29.868 17.244 15-25.98-29.868-17.244zM0 70.5v220h512v-220H0zm362 60c11.028 0 20 8.972 20 20s-8.972 20-20 20-20-8.972-20-20 8.972-20 20-20zm90 130H60v-30h392v30zm-20-90c-11.028 0-20-8.972-20-20s8.972-20 20-20 20 8.972 20 20-8.972 20-20 20z" fill="#484240"/></svg>