<svg version="1.1" id="Слой_1" xmlns="http://www.w3.org/2000/svg" x="0" y="0" viewBox="0 0 512 379.8" width="54" height="40" xml:space="preserve"><style>.st0{fill:#fff}</style><path class="st0" d="M322.3 335.6c-7.4 0-13.9-5.5-14.9-13.1-1-8.2 4.8-15.7 13-16.8 47.4-6 89.8-18.9 119.5-36.2 27.1-15.8 42.1-34.4 42.1-52.3 0-19.8-17.5-35.9-32.2-46-6.8-4.7-8.6-14-3.9-20.9 4.7-6.8 14-8.6 20.9-3.9 29.5 20.3 45.2 44.8 45.2 70.8 0 29.5-19.7 56.5-57 78.3-33.6 19.5-78.8 33.4-130.8 40-.6.1-1.3.1-1.9.1zM252.3 314.2l-40-40c-5.9-5.9-15.4-5.9-21.2 0-5.9 5.9-5.9 15.4 0 21.2l11.7 11.7c-44.8-4.6-85.5-15.1-117-30.2-35.4-17-55.8-38.8-55.8-59.6 0-17.7 14.6-36 41-51.7 7.1-4.2 9.5-13.4 5.3-20.6-4.2-7.1-13.4-9.5-20.6-5.3C9.7 167.1 0 197 0 217.3c0 33.3 25.8 64 72.8 86.6 36.4 17.5 83.5 29.2 134.9 33.8l-16.5 16.5c-5.9 5.9-5.9 15.4 0 21.2 2.9 2.9 6.8 4.4 10.6 4.4s7.7-1.5 10.6-4.4l40-40c5.8-5.9 5.8-15.4-.1-21.2z"/><path class="st0" d="M157.1 187.2v-3.6c0-12.7-7.8-15.2-18.2-15.2-6.5 0-8.6-5.7-8.6-11.4s2.1-11.4 8.6-11.4c7.2 0 14.8-.9 14.8-16.3 0-11-6.3-13.7-14.1-13.7-9.3 0-14.1 2.3-14.1 9.7 0 6.5-2.9 10.8-13.9 10.8-13.7 0-15.4-2.9-15.4-12 0-14.8 10.6-34 43.3-34 24.1 0 42.4 8.7 42.4 34.4 0 13.9-5.1 26.8-14.6 31.2 11.2 4.2 19.4 12.5 19.4 27.9v3.6c0 31.2-21.5 42.9-48.1 42.9-32.7 0-45.2-19.9-45.2-35.9 0-8.6 3.6-10.8 14.1-10.8 12.2 0 15.2 2.7 15.2 9.9 0 8.9 8.4 11 16.9 11 12.9 0 17.5-4.7 17.5-17.1zM302.1 183.6v1.7c0 32.7-20.3 44.8-46.6 44.8s-46.7-12.2-46.7-44.8V135c0-32.7 21.1-44.8 48.5-44.8 32.1 0 44.8 19.9 44.8 35.7 0 9.1-4.4 12-13.9 12-8.2 0-15.4-2.1-15.4-10.8 0-7.2-7.6-11-16.5-11-11.2 0-17.9 5.9-17.9 19v17.1c6.1-6.6 14.6-8.4 23.8-8.4 21.6-.1 39.9 9.4 39.9 39.8zm-63.7 3.8c0 13.1 6.5 18.8 17.1 18.8s16.9-5.7 16.9-18.8v-1.7c0-13.9-6.3-19.2-17.1-19.2-10.3 0-16.9 4.9-16.9 17.5v3.4zM325.1 185.3V135c0-32.7 20.3-44.8 46.6-44.8 26.2 0 46.7 12.2 46.7 44.8v50.4c0 32.7-20.5 44.8-46.7 44.8-26.3 0-46.6-12.2-46.6-44.9zm63.6-50.3c0-13.1-6.5-19-17.1-19s-16.9 5.9-16.9 19v50.4c0 13.1 6.3 19 16.9 19s17.1-5.9 17.1-19V135zM454.4 90c-24.8 0-45-20.2-45-45s20.2-45 45-45 45 20.2 45 45-20.2 45-45 45zm0-60c-8.3 0-15 6.7-15 15s6.7 15 15 15 15-6.7 15-15-6.8-15-15-15z"/></svg>