<svg height="19" viewBox="0 0 192 192" width="19" xmlns="http://www.w3.org/2000/svg"><path d="M140 0a52.059 52.059 0 00-51.874 48.563A56.156 56.156 0 0042.341 88h107.318a56.155 56.155 0 00-45.494-39.394A36 36 0 01176 52v140h16V52a52.059 52.059 0 00-52-52z" fill="#484240"/><path d="M32 96h128v16H32z" fill="#484240"/><circle cx="96" cy="176" r="8" fill="#484240"/><circle cx="96" cy="152" r="8" fill="#484240"/><circle cx="128" cy="176" r="8" fill="#484240"/><circle cx="128" cy="152" r="8" fill="#484240"/><circle cx="64" cy="176" r="8" fill="#484240"/><circle cx="64" cy="152" r="8" fill="#484240"/><circle cx="96" cy="128" r="8" fill="#484240"/><circle cx="128" cy="128" r="8" fill="#484240"/><circle cx="64" cy="128" r="8" fill="#484240"/></svg>