<svg version="1.1" id="Capa_1" xmlns="http://www.w3.org/2000/svg" x="0" y="0" viewBox="0 0 100 81" xml:space="preserve"><style>.st0{fill:#b99470}</style><path class="st0" d="M88.7 42.3c-2.8-1.1-7.5-1.7-11.4-1.7-2.8 0-6.4.1-10.7.4.4-4.9 1.3-9.3 2.7-11.8 1.7-3.1 3.8-6.2 6.6-9.2.8-.8 4.5-4.8 8.6-6.9 2.8-1.5 13.1-6.2 14.3-6.6-.4-.9-1.9-3.9-2-4.3-.2-.4-.9-1.7-1.1-2-.6.2-4.3 1.3-4.3 1.3S83.7 4.8 79.5 7c-5.6 2.6-11.7 8.6-11.7 8.6-9.6 9.4-11.5 17.6-11.5 17.6s-7.7 18 2.2 37.9c2.3 4.6 5 6 6.4 6.9 3.7 2.5 8.7 2.7 12.8 2.8h.1c2.5 0 11.2.3 16.2-4.7 4.6-4.5 4.8-6.9 5.5-11 .3-1.9.6-5.2.2-9-.3-2.8-1.4-4.6-2.8-7.2-1-1.9-1.6-2.2-2.6-3.4-1-.9-4.1-2.6-5.6-3.2zM35.5 42.3c-2.8-1.1-7.5-1.7-11.4-1.7-2.8 0-6.4.1-10.7.4.4-4.9 1.3-9.3 2.7-11.8 1.7-3.1 3.8-6.2 6.6-9.2.8-.8 4.5-4.8 8.6-6.9 2.8-1.5 13.1-6.2 14.3-6.6-.4-.9-1.9-3.9-2-4.3-.2-.4-.9-1.7-1.1-2-.6.2-4.3 1.3-4.3 1.3S30.5 4.7 26.3 7c-5.6 2.6-11.7 8.6-11.7 8.6C5.1 25 3.2 33.3 3.2 33.3s-7.7 18 2.2 37.9c2.3 4.6 5 6 6.4 6.9 3.7 2.5 8.7 2.7 12.8 2.8h.1c2.5 0 11.2.3 16.2-4.7 4.6-4.5 4.8-6.9 5.5-11 .3-1.9.6-5.2.2-9-.3-2.8-1.4-4.6-2.8-7.2-1-1.9-1.6-2.2-2.6-3.4-1-1.1-4.2-2.8-5.7-3.3z"/></svg>